<?xml version="1.0" encoding="UTF-8"?>
<svg width="64" height="64" viewBox="0 0 64 64" fill="none" xmlns="http://www.w3.org/2000/svg">
  <defs>
    <linearGradient id="leafGradient" x1="0" y1="0" x2="0" y2="1">
      <stop offset="0%" stop-color="#43e97b"/>
      <stop offset="100%" stop-color="#38f9d7"/>
    </linearGradient>
    <linearGradient id="bubbleGradient" x1="0" y1="0" x2="1" y2="1">
      <stop offset="0%" stop-color="#4FC3F7"/>
      <stop offset="100%" stop-color="#1976D2"/>
    </linearGradient>
  </defs>
  <circle cx="32" cy="32" r="32" fill="#F4FFF7"/>
  <!-- Chat bubble -->
  <ellipse cx="32" cy="34" rx="18" ry="13" fill="url(#bubbleGradient)"/>
  <path d="M32 47c-7 0-13-4-13-9h26c0 5-6 9-13 9z" fill="url(#bubbleGradient)"/>
  <!-- Bubble tail -->
  <path d="M32 47c-2 3-5 6-8 7 2-2 2-5 2-7" fill="url(#bubbleGradient)"/>
  <!-- Leaf overlay, stylized -->
  <path d="M44 20c-7 0-12 7-12 14 0 4 2 7 4 9 7-1 15-8 15-15 0-5-3-8-7-8z" fill="url(#leafGradient)"/>
  <path d="M44 20c-3 0-6 3-6 6 0 2 1 4 2 5 4-1 8-4 8-7 0-2-2-4-4-4z" fill="#2E7D32"/>
  <!-- Optional: subtle sparkle for freshness -->
  <circle cx="50" cy="18" r="2" fill="#fff" opacity="0.7"/>
</svg> 